<svg version="1.1" id="Layer_1" xmlns="http://www.w3.org/2000/svg" xmlns:xlink="http://www.w3.org/1999/xlink" x="0px" y="0px"
	 width="100%" viewBox="0 0 752 450" enable-background="new 0 0 752 450" xml:space="preserve">
<path fill="#FEFFFF" opacity="1.000000" stroke="none" 
	d="
M424.000000,451.000000 
	C282.666656,451.000000 141.833328,451.000000 1.000000,451.000000 
	C1.000000,301.000000 1.000000,151.000000 1.000000,1.000000 
	C251.666672,1.000000 502.333344,1.000000 753.000000,1.000000 
	C753.000000,151.000000 753.000000,301.000000 753.000000,451.000000 
	C643.500000,451.000000 534.000000,451.000000 424.000000,451.000000 
M502.577606,228.259460 
	C502.416748,228.587402 502.255890,228.915344 501.867279,229.727936 
	C501.329559,230.184418 500.791809,230.640900 499.672180,231.247284 
	C499.480652,231.582779 499.289124,231.918274 498.939514,232.643372 
	C498.771790,232.887741 498.542694,233.039413 497.681580,233.230316 
	C497.476715,233.547073 497.271851,233.863831 496.918610,234.599533 
	C496.760773,234.875504 496.525696,235.043259 495.427399,235.025848 
	C492.179749,235.250595 490.805939,237.034363 490.958038,240.623199 
	C490.787140,240.880264 490.550079,241.037704 489.637543,241.312881 
	C489.499359,241.704544 489.361176,242.096207 489.987000,242.675613 
	C513.209534,242.711380 536.432007,242.748856 559.654541,242.762390 
	C559.929138,242.762543 560.203918,242.453720 561.322815,241.783203 
	C560.894287,235.756714 560.435120,229.298264 559.346252,222.311584 
	C542.435059,222.209381 525.523865,222.109222 508.612640,222.002991 
	C505.772736,221.985153 504.790039,223.524216 504.927216,226.575668 
	C504.768188,226.849930 504.533630,227.020020 503.673370,227.205383 
	C503.472809,227.507248 503.272247,227.809113 503.022705,228.023285 
	C503.022705,228.023285 503.111115,228.071014 502.577606,228.259460 
M474.403076,288.851471 
	C474.755554,288.464966 475.108032,288.078430 475.460541,287.691925 
	C474.903992,287.510284 474.347412,287.328644 473.428894,286.875702 
	C473.208588,286.667328 473.016510,286.435547 472.925720,285.352081 
	C472.951324,284.247131 472.976898,283.142151 473.317322,281.700134 
	C473.507324,281.457458 473.675934,281.200714 474.230774,280.848450 
	C474.315704,280.741333 474.486053,280.553436 474.472626,280.539276 
	C474.298553,280.355133 474.098389,280.195679 473.691589,279.589722 
	C473.497406,279.322388 473.261688,279.098846 472.449982,278.394073 
	C470.795044,278.074463 469.140106,277.754822 467.485168,277.435211 
	C469.144623,276.199921 470.880432,276.254730 472.485474,275.823212 
	C475.315430,275.062317 475.688538,273.099670 474.062012,270.926453 
	C472.724487,269.139221 460.435242,269.177032 458.981689,270.974915 
	C458.335571,271.774048 458.104736,273.084991 458.074707,274.174377 
	C457.969696,277.983063 457.886017,281.805695 458.122955,285.602478 
	C458.196228,286.777191 459.316925,287.886505 459.987762,288.993439 
	C459.987762,288.993439 459.987915,289.037201 460.473389,289.558350 
	C461.960571,290.163574 463.566864,290.576813 464.911865,291.411255 
	C468.476074,293.622620 471.223358,292.879608 473.947693,288.846619 
	C473.947693,288.846619 473.772003,288.777496 474.403076,288.851471 
M352.920593,270.378784 
	C350.123260,268.716095 347.295532,266.667633 344.095886,271.132294 
	C341.740143,271.090302 339.384369,271.048279 336.943329,270.408905 
	C336.291077,270.608978 335.638824,270.809082 334.657440,271.143127 
	C334.657440,271.143127 334.302124,271.138458 333.901306,271.113159 
	C333.781891,271.163666 333.560486,271.214264 333.560516,271.264709 
	C333.560669,271.497955 333.622375,271.731110 333.610931,272.450562 
	C333.610931,272.450562 333.487762,272.923676 332.824707,273.237793 
	C332.384216,277.878418 329.534637,282.642212 333.755035,287.567291 
	C333.829468,287.737793 333.903931,287.908325 334.095093,288.742432 
	C335.720978,290.573120 336.623444,290.159546 336.968872,287.406403 
	C336.968872,287.406403 337.093567,286.992065 337.713074,286.649872 
	C340.499878,285.813416 343.318024,285.066620 346.061829,284.107147 
	C347.730927,283.523468 349.285339,282.611755 350.971527,281.166870 
	C350.959595,280.483673 350.947662,279.800507 350.982208,278.430786 
	C351.639832,275.943909 352.297485,273.457001 352.920593,270.378784 
M385.043884,274.815033 
	C386.020081,274.880707 386.996246,274.946350 388.007538,275.790833 
	C388.371613,279.008423 388.637360,282.241699 389.147430,285.436005 
	C389.355835,286.741058 390.093140,287.961639 390.589844,289.220673 
	C391.686249,288.733154 392.782654,288.245636 394.102020,287.002594 
	C394.237671,284.530212 394.520691,282.054840 394.469910,279.586273 
	C394.412476,276.794159 395.200256,275.250061 398.363068,275.204437 
	C399.379456,275.189819 400.375397,273.757599 401.380676,272.973907 
	C400.259766,272.320618 399.138885,271.667328 397.848541,270.253998 
	C395.045288,268.604004 392.293030,267.492828 389.135406,271.107269 
	C387.443909,271.188232 385.752380,271.269226 383.980591,270.652618 
	C380.569092,268.597351 379.462585,271.640717 377.210876,273.154449 
	C376.800995,273.003235 376.391113,272.851990 375.764496,272.449127 
	C375.404968,272.323090 375.153412,272.450439 374.675507,273.040649 
	C374.675507,273.040649 374.298096,273.155731 373.537170,273.153564 
	C371.482300,276.008148 369.025543,278.816345 372.394897,283.612762 
	C369.080231,283.371002 365.765564,283.129211 361.983765,282.853363 
	C361.983765,280.444916 362.230530,278.610779 361.905273,276.884369 
	C361.647461,275.516083 360.688477,274.279907 359.532990,272.889526 
	C359.365479,272.849487 359.197937,272.809418 358.903595,272.202545 
	C358.537018,271.958313 358.170441,271.714081 357.803864,271.469818 
	C357.560425,272.027191 357.316956,272.584564 356.979004,273.584076 
	C356.979004,273.584076 356.833832,274.012238 356.334930,274.536591 
	C355.646576,277.226654 354.739685,279.882904 354.317444,282.614105 
	C353.544373,287.614197 357.017578,290.355011 362.719299,288.944092 
	C363.151855,289.031219 363.584412,289.118317 364.582397,289.677734 
	C366.717743,289.512085 368.853058,289.346436 371.618958,288.996429 
	C372.054108,288.952942 372.489288,288.909454 373.337585,289.418152 
	C377.042053,289.773071 378.747101,287.974487 379.014496,284.371490 
	C379.147522,282.578796 379.992340,280.786957 379.873016,279.038544 
	C379.638367,275.599121 381.353760,274.667664 385.043884,274.815033 
M220.768372,174.367462 
	C220.761612,173.929871 220.754852,173.492279 221.472870,172.730637 
	C222.727829,168.700882 223.982788,164.671127 225.536728,159.681351 
	C218.423798,162.710541 217.783295,161.994217 217.790131,155.217392 
	C217.791534,153.818359 215.863861,152.027206 214.389526,151.145447 
	C213.291946,150.489044 211.490997,151.008728 210.000504,150.172638 
	C209.494308,145.287781 206.097656,143.813614 200.015427,146.274399 
	C203.565613,147.955200 206.785110,149.479431 209.854919,151.750458 
	C208.255661,152.007202 206.631088,152.582962 205.062103,152.458389 
	C201.027634,152.138046 197.017838,151.507294 193.076096,150.295013 
	C194.585022,148.797165 196.093948,147.299332 198.388962,145.021179 
	C193.670486,145.579651 190.045624,146.008667 187.613953,146.296463 
	C186.409302,149.481461 185.514099,151.848267 183.845566,154.060913 
	C177.565918,154.112778 171.223694,153.648666 165.028854,154.399902 
	C160.972107,154.891846 158.664185,160.241318 159.571396,164.315079 
	C160.655807,169.184540 163.701721,169.723343 167.843506,168.353210 
	C168.766541,168.047882 169.876755,168.308411 171.789703,168.308411 
	C167.767151,174.679062 164.258270,180.236206 160.612625,186.009933 
	C150.635956,171.148972 135.827988,169.818039 120.227615,170.887680 
	C121.196358,164.845505 123.140114,160.447342 129.847412,160.533463 
	C130.530182,160.542236 131.668762,159.546677 131.799744,158.864349 
	C131.946884,158.097946 131.433746,156.781693 130.783112,156.359940 
	C128.246368,154.715652 119.263626,158.664902 118.260010,161.655685 
	C114.450600,173.007736 110.516159,184.318848 106.827034,195.709579 
	C105.818520,198.823517 104.261368,199.624222 101.034004,199.365616 
	C92.071526,198.647461 84.087662,201.457031 78.209938,208.314743 
	C64.345818,224.490356 73.328552,247.981506 94.865425,252.392990 
	C106.380173,254.751602 118.768585,248.871964 124.379295,238.385498 
	C129.393875,229.013214 127.440430,215.223999 119.799171,207.780289 
	C118.705688,206.715088 116.652725,206.634857 115.043816,206.098770 
	C115.507317,207.591370 115.580292,209.406113 116.500656,210.521851 
	C120.933525,215.895798 123.662567,221.886337 122.654465,228.882309 
	C121.243652,238.672974 114.322662,245.959702 105.284645,247.898422 
	C95.885452,249.914612 85.656349,245.898407 80.242249,238.066162 
	C74.642273,229.964951 74.498512,220.550919 79.865089,213.368134 
	C85.751579,205.489471 94.837151,202.034836 103.032951,204.680420 
	C102.704323,208.890961 101.569229,211.680573 96.463036,212.797913 
	C88.644661,214.508713 84.884224,222.927200 87.529701,230.649200 
	C90.024841,237.932358 97.297798,240.944000 105.080643,237.916809 
	C113.391182,234.684387 116.184776,225.146500 110.441071,215.295120 
	C109.536072,217.608826 108.622673,218.970612 108.538269,220.381973 
	C108.402840,222.646820 109.293694,225.031204 108.898201,227.210312 
	C108.066620,231.792175 102.387779,235.493973 97.923225,234.831635 
	C94.675667,234.349838 90.987885,229.636948 91.012634,226.000092 
	C91.042572,221.601105 94.185844,217.958725 98.512497,217.309143 
	C99.671623,219.630997 94.531403,224.147385 101.233253,225.000168 
	C104.899796,214.341461 108.394714,203.957535 112.104942,193.651138 
	C112.627602,192.199295 114.131340,190.143402 115.302971,190.058899 
	C119.073814,189.786942 123.009758,189.817566 126.684029,190.628571 
	C133.264252,192.080948 134.246475,193.640015 134.236084,200.290375 
	C134.223053,208.620895 134.027496,216.951813 134.074921,225.281601 
	C134.133514,235.572235 143.857117,243.844330 153.729156,242.228943 
	C170.473694,239.488968 187.220215,236.759354 203.981094,234.121979 
	C211.473984,232.942947 215.998657,229.153183 215.879227,223.814713 
	C215.763779,218.654129 211.134567,215.099640 203.649673,214.435425 
	C202.986633,214.376587 202.313461,214.418091 201.653534,214.340424 
	C197.111710,213.805939 192.572174,213.252136 187.825363,212.679657 
	C192.388885,204.179672 203.289917,200.366089 212.758896,203.515121 
	C221.864319,206.543259 229.096924,217.716354 227.637497,226.499985 
	C224.862610,243.200867 206.192825,251.956726 190.447784,243.766861 
	C187.608978,242.290253 185.976822,241.899918 185.267578,245.496552 
	C199.986984,257.116272 224.020660,250.474350 230.346649,233.171570 
	C235.138336,220.065475 229.970840,208.097321 216.013397,199.182556 
	C216.910339,195.685791 223.039352,193.874680 218.591980,188.825134 
	C220.727478,188.217728 222.187912,187.802322 223.309753,187.483231 
	C223.213608,185.421173 222.465897,183.364166 223.181290,182.230316 
	C225.827469,178.036331 225.713928,177.148743 220.768372,174.367462 
M560.859924,166.036896 
	C560.805176,160.714157 560.750488,155.391403 560.588867,149.330872 
	C559.303833,149.104492 558.019104,148.683273 556.733643,148.680832 
	C535.753235,148.641052 514.772766,148.646240 493.792328,148.674667 
	C492.495819,148.676422 491.199738,148.955109 488.625946,149.252609 
	C493.921753,154.660599 498.830872,159.117172 503.045044,164.155045 
	C506.351685,168.107971 509.974915,169.651001 515.065918,169.388306 
	C524.663147,168.893082 534.286621,168.908218 544.788025,168.866302 
	C546.887756,168.811432 548.987549,168.756561 551.676697,169.109116 
	C554.756226,168.697678 558.513916,171.120941 560.859924,166.036896 
M410.475922,161.288498 
	C417.273926,162.644653 424.389191,163.147568 430.804413,165.533051 
	C444.524506,170.634827 455.288879,190.086975 448.128662,206.153168 
	C439.621643,225.241302 424.662415,231.166763 405.637726,229.300171 
	C400.178772,228.764557 396.822845,229.755127 393.635284,233.734879 
	C389.993835,238.281342 386.102997,242.628021 382.051605,247.376709 
	C392.555634,250.297882 409.528961,249.838440 425.118744,247.203400 
	C465.895142,240.311264 485.271240,192.589493 459.173248,160.855164 
	C449.593353,149.206314 437.244507,141.852051 421.944000,141.009415 
	C410.663300,140.388153 399.324158,140.790665 388.011353,140.828125 
	C386.160614,140.834244 384.311493,141.311874 381.543671,141.700470 
	C385.305786,146.070786 388.746490,149.298111 391.244507,153.138580 
	C395.684937,159.965256 401.294495,163.312378 410.475922,161.288498 
M646.068848,205.581818 
	C648.577576,202.495956 651.496887,199.657379 653.528198,196.284058 
	C666.520630,174.707840 652.986450,146.774139 629.534119,144.033463 
	C612.627441,142.057739 595.299011,143.688919 578.158752,143.739456 
	C577.904297,143.740204 577.650940,144.104477 577.004700,144.599838 
	C579.435852,149.551163 582.174316,154.477814 584.281128,159.661209 
	C585.560608,162.809113 587.321289,163.125931 590.384827,163.102921 
	C602.177673,163.014313 613.993164,163.014282 625.761963,163.668518 
	C633.431396,164.094849 637.596985,168.584290 639.588013,176.582565 
	C641.464294,184.119476 640.195374,188.769318 633.220398,192.636505 
	C628.899414,195.032150 623.531067,195.769684 618.525574,196.620422 
	C615.038940,197.213013 611.370300,196.734558 607.840210,196.734558 
	C607.840210,197.789627 607.719421,198.177826 607.857483,198.415787 
	C617.120911,214.378433 626.388306,230.338898 635.731812,246.254639 
	C636.263062,247.159622 637.415222,248.275192 638.307007,248.300842 
	C644.506104,248.479111 650.712769,248.394958 658.018677,248.394958 
	C652.433655,238.404770 647.635254,229.499908 642.528564,220.775436 
	C637.178162,211.634415 637.048889,211.710083 646.068848,205.581818 
M304.234772,218.933426 
	C300.842010,211.345901 299.165741,212.691040 307.086761,206.760712 
	C311.081146,203.770172 314.752228,199.634109 317.063965,195.226395 
	C331.257477,168.164062 308.831177,142.827209 287.244171,143.378418 
	C273.099152,143.739609 258.937653,143.445908 244.783615,143.477539 
	C243.359940,143.480728 241.936752,143.705765 239.751816,143.893127 
	C242.464310,149.513321 245.081329,154.477631 247.257904,159.628052 
	C248.443817,162.434235 250.131256,163.132248 253.000305,163.116150 
	C264.465485,163.051819 275.937347,163.056015 287.396393,163.390198 
	C296.450989,163.654251 302.262085,170.019821 303.331940,180.133987 
	C304.045837,186.882828 299.440704,192.859268 291.229126,195.036362 
	C287.261993,196.088135 283.067261,196.368484 278.952454,196.745468 
	C276.239380,196.994034 273.485107,196.792480 270.726654,196.792480 
	C270.788788,197.886810 270.696442,198.273590 270.841217,198.522293 
	C280.123566,214.465256 289.408813,230.406616 298.767181,246.304932 
	C299.306549,247.221237 300.437408,248.380753 301.322998,248.406815 
	C307.527863,248.589417 313.740662,248.503525 321.252167,248.503525 
	C315.198975,237.964279 309.917358,228.768417 304.234772,218.933426 
M342.743011,223.497513 
	C342.743011,231.826416 342.743011,240.155319 342.743011,248.484222 
	C343.356018,248.645294 343.969055,248.806381 344.582062,248.967453 
	C349.483429,244.100861 354.672180,239.481110 359.158447,234.257965 
	C361.233643,231.841858 363.035553,228.267212 363.087036,225.186493 
	C363.423615,205.051071 363.268066,184.906998 363.196930,164.766006 
	C363.191284,163.162979 363.158661,161.024124 362.204132,160.048309 
	C356.473511,154.189880 350.469513,148.598862 344.557068,142.918274 
	C343.953003,143.125641 343.348907,143.333008 342.744812,143.540375 
	C342.744812,169.859695 342.744812,196.179001 342.743011,223.497513 
M522.500000,185.704422 
	C516.515991,185.704285 510.531982,185.704041 504.547974,185.704025 
	C489.556396,185.703979 489.713898,185.705231 489.599335,200.649277 
	C489.567657,204.781738 491.001434,205.667084 494.795166,205.631866 
	C512.579407,205.466736 530.366089,205.544205 548.151855,205.557495 
	C563.260376,205.568787 563.049866,205.597641 561.951965,190.459885 
	C561.645325,186.232315 559.955139,185.603622 556.411316,185.650375 
	C545.442566,185.795059 534.470703,185.704880 522.500000,185.704422 
M442.223297,284.372040 
	C444.189606,285.528503 446.066071,286.919495 448.167084,287.724213 
	C448.989868,288.039368 451.110840,287.243256 451.275208,286.602875 
	C451.967621,283.904663 452.458282,281.067383 452.398224,278.294556 
	C452.359253,276.494507 451.663666,274.359497 450.515961,273.008667 
	C448.421295,270.543396 436.995026,269.629272 434.324463,271.420654 
	C433.734985,271.816071 433.145264,272.694275 433.121124,273.370361 
	C432.973816,277.497650 432.879913,281.635132 433.041290,285.758484 
	C433.074615,286.608765 434.159363,287.562347 434.988953,288.137115 
	C435.200775,288.283844 436.239044,287.076813 436.986450,286.645874 
	C438.413391,285.823120 439.904266,285.111237 442.223297,284.372040 
M417.475372,289.294434 
	C426.223511,288.922424 429.401428,285.401489 428.157288,277.106812 
	C427.848328,275.046875 428.023529,271.593292 423.958923,273.337494 
	C425.028564,282.543030 423.859985,285.197418 418.685272,285.619965 
	C412.229218,286.147156 410.411346,284.383911 410.248047,277.833801 
	C410.197723,275.816040 411.602814,272.468994 407.246429,272.906555 
	C404.386017,285.051849 406.450409,288.572174 417.475372,289.294434 
M511.855530,275.965179 
	C508.944641,279.370850 511.452881,280.719391 514.203735,281.581421 
	C516.633606,282.342896 519.218628,282.609375 521.735107,283.094391 
	C521.704102,283.493439 521.673096,283.892456 521.642090,284.291504 
	C517.831238,284.291504 514.020386,284.291504 510.209534,284.291504 
	C510.977631,285.726929 512.115417,286.740845 513.375977,286.927948 
	C515.485229,287.241089 517.810852,287.492371 519.789490,286.906067 
	C521.863403,286.291565 523.635925,284.660187 525.540222,283.473236 
	C523.717102,282.340729 521.977295,281.028809 520.045166,280.130951 
	C518.421021,279.376160 516.572815,279.103455 514.823853,278.617340 
	C514.959290,278.089752 515.094727,277.562195 515.230103,277.034607 
	C518.450928,277.034607 521.671753,277.034607 524.892578,277.034607 
	C520.937744,273.264160 516.715637,274.158417 511.855530,275.965179 
M588.670959,274.947449 
	C583.893250,275.394501 582.578247,280.610260 585.788635,286.379852 
	C590.199524,280.997345 594.597961,284.433014 598.949402,286.769806 
	C599.223145,284.762360 599.106384,282.979919 599.734863,281.517761 
	C601.437866,277.555328 599.372375,275.824341 596.048035,275.111481 
	C593.979004,274.667816 591.748108,274.978729 588.670959,274.947449 
M607.848511,287.553009 
	C610.843872,287.504120 613.839233,287.455231 616.834595,287.406311 
	C616.828064,286.835724 616.821594,286.265106 616.815125,285.694489 
	C613.769653,285.174500 610.724243,284.654510 607.678772,284.134521 
	C607.796753,283.497711 607.914795,282.860931 608.032776,282.224152 
	C609.624634,282.224152 611.217102,282.253357 612.808105,282.215302 
	C614.174805,282.182617 615.539734,282.073151 616.905518,281.997650 
	C616.895447,281.551270 616.885376,281.104858 616.875366,280.658478 
	C613.831787,280.172882 610.788208,279.687286 607.744568,279.201721 
	C607.779480,278.631500 607.814331,278.061310 607.849182,277.491119 
	C610.836975,277.197449 613.824707,276.903778 616.812439,276.610107 
	C616.763428,276.207916 616.714417,275.805725 616.665405,275.403534 
	C612.922607,275.403534 609.179749,275.403534 604.125244,275.403534 
	C605.172302,279.877258 606.071350,283.718719 607.848511,287.553009 
M579.948730,274.581238 
	C576.384094,274.581238 572.819458,274.581238 569.208923,274.581238 
	C569.208923,278.982056 569.208923,282.745056 569.208923,286.767334 
	C573.226807,286.767334 576.968872,286.767334 580.710876,286.767334 
	C580.725403,286.322235 580.739868,285.877136 580.754333,285.432037 
	C577.526855,285.122101 574.299377,284.812195 571.071838,284.502258 
	C571.046326,283.906738 571.020813,283.311218 570.995300,282.715668 
	C574.261658,282.278076 577.528015,281.840485 580.794434,281.402863 
	C580.736511,280.920776 580.678589,280.438660 580.620667,279.956573 
	C578.854004,279.956573 577.061462,280.141724 575.328796,279.898926 
	C573.901855,279.698975 572.545959,278.991791 571.158569,278.509399 
	C572.502197,277.979095 573.837097,277.425323 575.191528,276.924255 
	C576.989868,276.258942 578.803406,275.634827 579.948730,274.581238 
M503.094452,274.945251 
	C499.696655,274.945251 496.298859,274.945251 492.901062,274.945251 
	C492.905487,275.489685 492.909943,276.034119 492.914398,276.578552 
	C494.628510,276.912659 496.342621,277.246735 498.065735,277.582611 
	C498.065735,280.100464 498.065735,282.340790 498.065735,284.481995 
	C496.241943,284.937378 494.799957,285.297424 493.358002,285.657471 
	C493.404327,286.062317 493.450653,286.467163 493.496979,286.872009 
	C497.590820,286.872009 501.684662,286.872009 505.778503,286.872009 
	C505.824707,286.519897 505.870941,286.167786 505.917145,285.815674 
	C504.326691,285.341797 502.736206,284.867920 501.262238,284.428741 
	C501.262238,281.931122 501.262238,279.677979 501.262238,277.531677 
	C503.032013,277.063873 504.434204,276.693207 505.836365,276.322571 
	C505.793182,276.035919 505.750000,275.749298 505.706818,275.462646 
	C505.127625,275.299164 504.548462,275.135681 503.094452,274.945251 
M560.894592,278.669891 
	C558.307007,279.104095 555.635681,280.141296 553.156189,279.797058 
	C550.837402,279.475067 548.722107,277.688019 546.666260,276.622955 
	C546.666260,279.351959 546.666260,282.807007 546.666260,286.262085 
	C549.852112,278.570679 555.961304,283.327087 560.306519,281.930298 
	C560.910461,283.826447 561.339600,285.173859 561.768738,286.521271 
	C561.992310,286.442200 562.215942,286.363098 562.439514,286.284027 
	C562.439514,282.773438 562.439514,279.262848 562.439514,275.752258 
	C562.134399,275.733337 561.829285,275.714417 561.524109,275.695496 
	C561.332275,276.418060 561.140381,277.140656 560.894592,278.669891 
z"/>
<path fill="#9E9E9D" opacity="1.000000" stroke="none" 
	d="
M216.000702,199.945465 
	C229.970840,208.097321 235.138336,220.065475 230.346649,233.171570 
	C224.020660,250.474350 199.986984,257.116272 185.267578,245.496552 
	C185.976822,241.899918 187.608978,242.290253 190.447784,243.766861 
	C206.192825,251.956726 224.862610,243.200867 227.637497,226.499985 
	C229.096924,217.716354 221.864319,206.543259 212.758896,203.515121 
	C203.289917,200.366089 192.388885,204.179672 187.825363,212.679657 
	C192.572174,213.252136 197.111710,213.805939 201.653534,214.340424 
	C202.313461,214.418091 202.986633,214.376587 203.649673,214.435425 
	C211.134567,215.099640 215.763779,218.654129 215.879227,223.814713 
	C215.998657,229.153183 211.473984,232.942947 203.981094,234.121979 
	C187.220215,236.759354 170.473694,239.488968 153.729156,242.228943 
	C143.857117,243.844330 134.133514,235.572235 134.074921,225.281601 
	C134.027496,216.951813 134.223053,208.620895 134.236084,200.290375 
	C134.246475,193.640015 133.264252,192.080948 126.684029,190.628571 
	C123.009758,189.817566 119.073814,189.786942 115.302971,190.058899 
	C114.131340,190.143402 112.627602,192.199295 112.104942,193.651138 
	C108.394714,203.957535 104.899796,214.341461 101.233253,225.000168 
	C94.531403,224.147385 99.671623,219.630997 98.512634,217.309097 
	C94.185844,217.958725 91.042572,221.601105 91.012634,226.000092 
	C90.987885,229.636948 94.675667,234.349838 97.923225,234.831635 
	C102.387779,235.493973 108.066620,231.792175 108.898201,227.210312 
	C109.293694,225.031204 108.402840,222.646820 108.538269,220.381973 
	C108.622673,218.970612 109.536072,217.608826 110.441071,215.295120 
	C116.184776,225.146500 113.391182,234.684387 105.080643,237.916809 
	C97.297798,240.944000 90.024841,237.932358 87.529701,230.649200 
	C84.884224,222.927200 88.644661,214.508713 96.463036,212.797913 
	C101.569229,211.680573 102.704323,208.890961 103.032951,204.680420 
	C94.837151,202.034836 85.751579,205.489471 79.865089,213.368134 
	C74.498512,220.550919 74.642273,229.964951 80.242249,238.066162 
	C85.656349,245.898407 95.885452,249.914612 105.284645,247.898422 
	C114.322662,245.959702 121.243652,238.672974 122.654465,228.882309 
	C123.662567,221.886337 120.933525,215.895798 116.500656,210.521851 
	C115.580292,209.406113 115.507317,207.591370 115.043816,206.098770 
	C116.652725,206.634857 118.705688,206.715088 119.799171,207.780289 
	C127.440430,215.223999 129.393875,229.013214 124.379295,238.385498 
	C118.768585,248.871964 106.380173,254.751602 94.865425,252.392990 
	C73.328552,247.981506 64.345818,224.490356 78.209938,208.314743 
	C84.087662,201.457031 92.071526,198.647461 101.034004,199.365616 
	C104.261368,199.624222 105.818520,198.823517 106.827034,195.709579 
	C110.516159,184.318848 114.450600,173.007736 118.260010,161.655685 
	C119.263626,158.664902 128.246368,154.715652 130.783112,156.359940 
	C131.433746,156.781693 131.946884,158.097946 131.799744,158.864349 
	C131.668762,159.546677 130.530182,160.542236 129.847412,160.533463 
	C123.140114,160.447342 121.196358,164.845505 120.227615,170.887680 
	C135.827988,169.818039 150.635956,171.148972 160.612625,186.009933 
	C164.258270,180.236206 167.767151,174.679062 171.789703,168.308411 
	C169.876755,168.308411 168.766541,168.047882 167.843506,168.353210 
	C163.701721,169.723343 160.655807,169.184540 159.571396,164.315079 
	C158.664185,160.241318 160.972107,154.891846 165.028854,154.399902 
	C171.223694,153.648666 177.565918,154.112778 184.380615,154.465637 
	C185.994476,157.911850 187.073288,160.953323 188.072327,164.363449 
	C185.755997,171.758636 185.755997,171.758636 176.070648,169.462601 
	C174.344208,172.547165 172.574707,175.708649 170.533096,179.070587 
	C166.607498,185.243134 161.074081,190.464691 162.873367,198.599442 
	C163.052094,199.407455 161.719650,200.549728 161.088577,201.536880 
	C160.369125,200.472351 159.087875,199.443680 159.017319,198.337769 
	C158.332916,187.609665 152.880157,180.379364 142.745682,177.386047 
	C137.273117,175.769669 131.361633,175.237015 125.619179,175.033615 
	C117.579643,174.748886 116.207718,176.444717 115.757240,184.888397 
	C119.371300,185.284042 123.008186,185.549622 126.600990,186.101959 
	C135.167908,187.418991 138.756805,191.679474 138.746826,200.264084 
	C138.742294,204.158569 138.746048,208.053055 138.746048,211.872223 
	C143.809860,210.567688 148.101028,208.412216 152.284592,208.603973 
	C160.877731,208.997849 169.396255,210.828323 177.985809,211.641495 
	C179.875488,211.820389 182.711807,210.798767 183.783173,209.348312 
	C189.373459,201.779892 196.833328,198.297577 206.406570,197.982208 
	C209.874130,198.682404 212.937408,199.313934 216.000702,199.945465 
M211.126984,225.257614 
	C211.457428,220.110580 207.845535,219.404312 204.015839,218.948227 
	C197.088882,218.123306 190.162857,217.290253 183.234039,216.481186 
	C172.676041,215.248322 162.139526,213.725403 151.548798,212.915115 
	C144.110565,212.346039 138.920273,217.838943 138.899445,225.217529 
	C138.874680,233.989166 146.146698,239.452301 155.721420,237.876740 
	C170.131897,235.505432 184.575439,233.315948 198.937668,230.682388 
	C203.100372,229.919083 208.268875,231.006027 211.126984,225.257614 
M177.241730,157.903595 
	C174.408493,157.904785 171.562332,157.736023 168.745270,157.950134 
	C165.223511,158.217819 163.316528,159.926575 164.156052,163.263428 
	C170.639328,164.233795 176.620758,165.129044 182.766541,166.048889 
	C185.240402,160.948166 183.966690,158.433960 177.241730,157.903595 
z"/>
<path fill="#42B0CE" opacity="1.000000" stroke="none" 
	d="
M409.988525,161.287186 
	C401.294495,163.312378 395.684937,159.965256 391.244507,153.138580 
	C388.746490,149.298111 385.305786,146.070786 381.543671,141.700470 
	C384.311493,141.311874 386.160614,140.834244 388.011353,140.828125 
	C399.324158,140.790665 410.663300,140.388153 421.944000,141.009415 
	C437.244507,141.852051 449.593353,149.206314 459.173248,160.855164 
	C485.271240,192.589493 465.895142,240.311264 425.118744,247.203400 
	C409.528961,249.838440 392.555634,250.297882 382.051605,247.376709 
	C386.102997,242.628021 389.993835,238.281342 393.635284,233.734879 
	C396.822845,229.755127 400.178772,228.764557 405.637726,229.300171 
	C424.662415,231.166763 439.621643,225.241302 448.128662,206.153168 
	C455.288879,190.086975 444.524506,170.634827 430.804413,165.533051 
	C424.389191,163.147568 417.273926,162.644653 409.988525,161.287186 
M446.718109,171.816498 
	C459.447571,189.794037 457.372894,209.735764 440.999969,224.214203 
	C431.282806,232.807053 419.487244,234.835892 406.939697,234.156647 
	C399.620331,233.760452 394.718811,237.304749 391.703552,245.424469 
	C400.326965,244.915466 408.628601,244.768723 416.847290,243.866226 
	C432.201447,242.180161 445.592255,236.770660 455.762177,224.173462 
	C471.637665,204.509109 469.186920,176.153900 450.896149,158.717178 
	C433.634338,142.261353 413.013641,146.025955 392.374451,145.935669 
	C397.940674,155.800919 399.789124,157.001038 409.924561,156.878754 
	C424.031311,156.708572 436.557983,160.392746 446.718109,171.816498 
z"/>
<path fill="#41ADCC" opacity="1.000000" stroke="none" 
	d="
M645.788330,205.804840 
	C637.048889,211.710083 637.178162,211.634415 642.528564,220.775436 
	C647.635254,229.499908 652.433655,238.404770 658.018677,248.394958 
	C650.712769,248.394958 644.506104,248.479111 638.307007,248.300842 
	C637.415222,248.275192 636.263062,247.159622 635.731812,246.254639 
	C626.388306,230.338898 617.120911,214.378433 607.857483,198.415787 
	C607.719421,198.177826 607.840210,197.789627 607.840210,196.734558 
	C611.370300,196.734558 615.038940,197.213013 618.525574,196.620422 
	C623.531067,195.769684 628.899414,195.032150 633.220398,192.636505 
	C640.195374,188.769318 641.464294,184.119476 639.588013,176.582565 
	C637.596985,168.584290 633.431396,164.094849 625.761963,163.668518 
	C613.993164,163.014282 602.177673,163.014313 590.384827,163.102921 
	C587.321289,163.125931 585.560608,162.809113 584.281128,159.661209 
	C582.174316,154.477814 579.435852,149.551163 577.004700,144.599838 
	C577.650940,144.104477 577.904297,143.740204 578.158752,143.739456 
	C595.299011,143.688919 612.627441,142.057739 629.534119,144.033463 
	C652.986450,146.774139 666.520630,174.707840 653.528198,196.284058 
	C651.496887,199.657379 648.577576,202.495956 645.788330,205.804840 
M625.617615,200.304382 
	C622.259155,200.727081 618.900696,201.149780 614.889465,201.654633 
	C622.140320,214.080856 629.079102,225.992645 636.038879,237.892227 
	C640.117310,244.865433 641.323853,245.334808 649.879639,243.185638 
	C643.508850,231.870758 637.188354,220.645294 630.685913,209.096710 
	C632.924805,208.030823 634.697205,207.219467 636.441406,206.351410 
	C649.223083,199.990036 656.213562,185.555588 653.521179,172.311508 
	C650.985718,159.839279 636.701111,146.380707 622.899536,147.818008 
	C616.637878,148.470093 610.251526,147.923721 603.921753,147.922623 
	C597.483093,147.921509 591.044495,147.922379 583.940735,147.922379 
	C584.815247,150.040665 585.510925,151.329681 585.886047,152.706055 
	C587.199036,157.524200 590.206055,158.564407 595.078735,158.410706 
	C605.038513,158.096542 615.044922,158.432541 625.000305,159.030045 
	C635.734497,159.674286 641.489929,165.261124 644.253296,176.705490 
	C646.343323,185.361420 643.557739,191.990479 635.272156,196.873291 
	C632.608582,198.443008 629.400940,199.089584 625.617615,200.304382 
z"/>
<path fill="#41AECC" opacity="1.000000" stroke="none" 
	d="
M304.435242,219.252991 
	C309.917358,228.768417 315.198975,237.964279 321.252167,248.503525 
	C313.740662,248.503525 307.527863,248.589417 301.322998,248.406815 
	C300.437408,248.380753 299.306549,247.221237 298.767181,246.304932 
	C289.408813,230.406616 280.123566,214.465256 270.841217,198.522293 
	C270.696442,198.273590 270.788788,197.886810 270.726654,196.792480 
	C273.485107,196.792480 276.239380,196.994034 278.952454,196.745468 
	C283.067261,196.368484 287.261993,196.088135 291.229126,195.036362 
	C299.440704,192.859268 304.045837,186.882828 303.331940,180.133987 
	C302.262085,170.019821 296.450989,163.654251 287.396393,163.390198 
	C275.937347,163.056015 264.465485,163.051819 253.000305,163.116150 
	C250.131256,163.132248 248.443817,162.434235 247.257904,159.628052 
	C245.081329,154.477631 242.464310,149.513321 239.751816,143.893127 
	C241.936752,143.705765 243.359940,143.480728 244.783615,143.477539 
	C258.937653,143.445908 273.099152,143.739609 287.244171,143.378418 
	C308.831177,142.827209 331.257477,168.164062 317.063965,195.226395 
	C314.752228,199.634109 311.081146,203.770172 307.086761,206.760712 
	C299.165741,212.691040 300.842010,211.345901 304.435242,219.252991 
M287.339050,147.919724 
	C274.076355,147.919724 260.813690,147.919724 246.990860,147.919724 
	C247.634415,149.670593 248.093765,150.694794 248.390015,151.764191 
	C249.911835,157.257660 253.257858,158.933273 259.018097,158.371063 
	C266.109070,157.678955 273.374237,157.677231 280.462952,158.387314 
	C286.629456,159.005020 293.346832,159.791992 298.580505,162.720627 
	C306.366943,167.077759 308.471130,175.542587 307.641754,184.048782 
	C306.855896,192.108627 300.953186,196.537292 293.790985,198.843369 
	C288.866791,200.428864 283.602173,200.957047 278.138245,202.026611 
	C285.218079,214.224182 292.203247,226.291183 299.222290,238.338440 
	C302.997101,244.817398 304.606018,245.387238 312.835022,243.067368 
	C309.598328,237.350723 306.405304,231.738525 303.239075,226.111282 
	C300.092590,220.519150 296.973083,214.911850 293.683655,209.028458 
	C295.912903,208.025314 297.570068,207.324692 299.188690,206.544098 
	C311.689362,200.515656 319.330536,185.895538 316.669922,173.129135 
	C313.722137,158.985001 301.685547,148.292526 287.339050,147.919724 
z"/>
<path fill="#FCFCFC" opacity="1.000000" stroke="none" 
	d="
M206.002304,197.913544 
	C196.833328,198.297577 189.373459,201.779892 183.783173,209.348312 
	C182.711807,210.798767 179.875488,211.820389 177.985809,211.641495 
	C169.396255,210.828323 160.877731,208.997849 152.284592,208.603973 
	C148.101028,208.412216 143.809860,210.567688 138.746048,211.872223 
	C138.746048,208.053055 138.742294,204.158569 138.746826,200.264084 
	C138.756805,191.679474 135.167908,187.418991 126.600990,186.101959 
	C123.008186,185.549622 119.371300,185.284042 115.757240,184.888397 
	C116.207718,176.444717 117.579643,174.748886 125.619179,175.033615 
	C131.361633,175.237015 137.273117,175.769669 142.745682,177.386047 
	C152.880157,180.379364 158.332916,187.609665 159.017319,198.337769 
	C159.087875,199.443680 160.369125,200.472351 161.088577,201.536880 
	C161.719650,200.549728 163.052094,199.407455 162.873367,198.599442 
	C161.074081,190.464691 166.607498,185.243134 170.830078,179.286346 
	C173.183365,183.525772 174.600464,188.085037 180.107468,188.913513 
	C180.072357,188.948898 180.133911,188.897430 180.095047,189.268890 
	C182.598892,192.224686 184.897522,195.125595 187.741959,197.318558 
	C191.924881,200.543411 196.574814,198.413834 196.830505,192.939545 
	C197.024658,188.782944 198.457611,187.616043 202.428284,188.993927 
	C202.428284,187.205750 202.428284,185.838654 202.428284,184.253632 
	C204.047485,184.253632 205.401047,184.253632 206.588242,184.253632 
	C207.001114,182.125793 207.726227,180.315796 207.562378,178.590240 
	C207.442947,177.332535 206.151154,176.186157 205.244781,174.777222 
	C205.058029,174.402847 205.008499,174.241394 204.938675,173.720123 
	C203.165359,171.335556 201.412338,169.310806 199.624847,167.303802 
	C199.590378,167.321548 199.517059,167.346863 199.620361,166.979752 
	C198.918945,165.790131 198.183212,164.356232 197.296982,164.256271 
	C194.277298,163.915558 191.204575,164.044891 188.152100,163.994797 
	C187.073288,160.953323 185.994476,157.911850 184.767288,154.542725 
	C185.514099,151.848267 186.409302,149.481461 187.613953,146.296463 
	C190.045624,146.008667 193.670486,145.579651 198.388962,145.021179 
	C196.093948,147.299332 194.585022,148.797165 192.670746,150.689850 
	C188.096252,154.058304 187.792511,156.196091 191.042969,160.324615 
	C192.391830,161.099228 193.696533,161.548615 195.374405,161.996643 
	C197.789642,161.221252 199.831696,160.447220 202.478882,159.443817 
	C204.030685,163.107346 205.477448,166.792587 207.185074,170.352722 
	C207.580887,171.177979 208.862778,171.582367 209.743896,172.169983 
	C214.720459,175.488846 214.482803,176.382935 211.079346,181.197815 
	C209.089417,184.012939 208.598969,187.888000 207.402252,191.272522 
	C207.370575,191.258835 207.306473,191.233261 206.920929,191.203476 
	C206.357681,193.420303 206.179993,195.666931 206.002304,197.913544 
z"/>
<path fill="#46B5D3" opacity="1.000000" stroke="none" 
	d="
M342.743896,222.997925 
	C342.744812,196.179001 342.744812,169.859695 342.744812,143.540375 
	C343.348907,143.333008 343.953003,143.125641 344.557068,142.918274 
	C350.469513,148.598862 356.473511,154.189880 362.204132,160.048309 
	C363.158661,161.024124 363.191284,163.162979 363.196930,164.766006 
	C363.268066,184.906998 363.423615,205.051071 363.087036,225.186493 
	C363.035553,228.267212 361.233643,231.841858 359.158447,234.257965 
	C354.672180,239.481110 349.483429,244.100861 344.582062,248.967453 
	C343.969055,248.806381 343.356018,248.645294 342.743011,248.484222 
	C342.743011,240.155319 342.743011,231.826416 342.743896,222.997925 
M347.719513,169.506363 
	C347.719513,192.176285 347.719513,214.846191 347.719513,238.285812 
	C358.277252,230.194046 358.278503,230.194046 358.276276,218.513336 
	C358.273041,201.681976 358.277283,184.850601 358.258301,168.019257 
	C358.251465,161.974777 354.224243,156.630981 347.719025,154.475708 
	C347.719025,159.267487 347.719025,163.888702 347.719513,169.506363 
z"/>
<path fill="#4CB5D5" opacity="1.000000" stroke="none" 
	d="
M523.000000,185.705139 
	C534.470703,185.704880 545.442566,185.795059 556.411316,185.650375 
	C559.955139,185.603622 561.645325,186.232315 561.951965,190.459885 
	C563.049866,205.597641 563.260376,205.568787 548.151855,205.557495 
	C530.366089,205.544205 512.579407,205.466736 494.795166,205.631866 
	C491.001434,205.667084 489.567657,204.781738 489.599335,200.649277 
	C489.713898,185.705231 489.556396,185.703979 504.547974,185.704025 
	C510.531982,185.704041 516.515991,185.704285 523.000000,185.705139 
M552.337280,200.995728 
	C553.783325,200.886215 555.229309,200.776688 556.576538,200.674652 
	C558.281677,191.136719 558.049622,190.828003 549.278137,190.824615 
	C533.813110,190.818649 518.348083,190.826782 502.883087,190.828888 
	C494.170074,190.830078 494.165985,190.830383 495.085541,199.694916 
	C495.114716,199.976395 495.420441,200.229202 495.932434,201.000046 
	C514.193298,201.000046 532.780701,201.000046 552.337280,200.995728 
z"/>
<path fill="#3BAED1" opacity="1.000000" stroke="none" 
	d="
M498.252258,233.098358 
	C498.542694,233.039413 498.771790,232.887741 499.279480,232.332657 
	C499.830963,231.713760 500.042511,231.405563 500.254089,231.097382 
	C500.791809,230.640900 501.329559,230.184418 502.232971,229.370819 
	C502.769501,228.699463 502.940308,228.385239 503.111115,228.071014 
	C503.111115,228.071014 503.022705,228.023285 503.312653,227.995331 
	C503.809570,227.673553 504.016541,227.379745 504.223511,227.085938 
	C504.533630,227.020020 504.768188,226.849930 505.336914,226.211212 
	C508.243774,224.888565 510.725983,223.148102 513.240601,223.099945 
	C528.814941,222.801773 544.396667,222.883957 559.975891,222.839828 
	C560.435120,229.298264 560.894287,235.756714 561.322815,241.783203 
	C560.203918,242.453720 559.929138,242.762543 559.654541,242.762390 
	C536.432007,242.748856 513.209534,242.711380 489.854584,242.415237 
	C489.897064,241.801743 490.071960,241.448624 490.246857,241.095520 
	C490.550079,241.037704 490.787140,240.880264 491.332947,240.273956 
	C493.209686,238.317398 494.711548,236.710083 496.213379,235.102783 
	C496.525696,235.043259 496.760773,234.875504 497.256958,234.291992 
	C497.814301,233.689087 498.033264,233.393723 498.252258,233.098358 
M526.500000,238.847534 
	C536.439880,238.847534 546.379761,238.847534 556.506714,238.847534 
	C556.506714,234.643539 556.506714,231.090897 556.506714,227.059372 
	C543.542725,227.059372 530.865234,227.773773 518.312866,226.827484 
	C508.718262,226.104187 505.423920,232.847809 500.667023,238.847397 
	C508.944702,238.847397 517.222351,238.847397 526.500000,238.847534 
z"/>
<path fill="#EFFCFC" opacity="1.000000" stroke="none" 
	d="
M207.433929,191.286224 
	C208.598969,187.888000 209.089417,184.012939 211.079346,181.197815 
	C214.482803,176.382935 214.720459,175.488846 209.743896,172.169983 
	C208.862778,171.582367 207.580887,171.177979 207.185074,170.352722 
	C205.477448,166.792587 204.030685,163.107346 202.478882,159.443817 
	C199.831696,160.447220 197.789642,161.221252 195.185120,161.728973 
	C193.414703,160.974915 192.206741,160.487152 190.998779,159.999390 
	C187.792511,156.196091 188.096252,154.058304 192.631790,151.042648 
	C197.017838,151.507294 201.027634,152.138046 205.062103,152.458389 
	C206.631088,152.582962 208.255661,152.007202 209.927460,151.375229 
	C210.000000,151.000000 210.003311,151.004608 210.003311,151.004608 
	C211.490997,151.008728 213.291946,150.489044 214.389526,151.145447 
	C215.863861,152.027206 217.791534,153.818359 217.790131,155.217392 
	C217.783295,161.994217 218.423798,162.710541 225.536728,159.681351 
	C223.982788,164.671127 222.727829,168.700882 220.905640,172.599487 
	C217.890396,159.896774 207.590286,151.945923 195.359299,153.024048 
	C192.252945,153.297852 191.080978,154.331635 192.557251,157.326614 
	C204.586563,156.698761 212.728165,161.250290 215.535904,170.088821 
	C218.011017,177.880280 214.751129,186.409256 207.433929,191.286224 
z"/>
<path fill="#2AAAD0" opacity="1.000000" stroke="none" 
	d="
M560.695740,150.068665 
	C560.750488,155.391403 560.805176,160.714157 560.416748,166.506531 
	C557.011414,167.551331 554.049377,168.126511 551.087280,168.701706 
	C548.987549,168.756561 546.887756,168.811432 544.023193,168.544281 
	C534.611450,168.141739 525.961792,168.152786 517.320312,167.891769 
	C515.857300,167.847565 514.429688,166.632553 513.455811,165.972137 
	C524.551575,165.988510 535.177551,166.034409 545.802429,165.950455 
	C547.531494,165.936783 549.255981,165.348633 551.319885,164.962570 
	C552.110352,164.944458 552.563538,164.989761 553.097961,165.198822 
	C553.446655,165.259613 553.714050,165.156677 554.298462,164.981644 
	C555.390747,164.606003 556.166199,164.302444 557.247314,163.732376 
	C557.367432,160.314972 557.181885,157.164078 556.708496,153.705902 
	C537.776489,153.307587 519.132202,153.206482 500.487915,153.189438 
	C500.064636,153.189056 499.640472,154.141113 499.141479,154.990540 
	C498.619415,155.692856 498.172638,156.053513 497.725891,156.414169 
	C496.521271,154.661270 495.316650,152.908386 493.365143,150.068665 
	C516.435974,150.068665 538.565857,150.068665 560.695740,150.068665 
z"/>
<path fill="#4CB1CF" opacity="1.000000" stroke="none" 
	d="
M560.642334,149.699768 
	C538.565857,150.068665 516.435974,150.068665 493.365143,150.068665 
	C495.316650,152.908386 496.521271,154.661270 497.725891,156.414169 
	C498.172638,156.053513 498.619415,155.692856 499.406738,154.972763 
	C502.831696,157.739273 505.916077,160.865204 508.739899,164.204849 
	C508.857300,165.483749 509.235260,166.548920 509.613220,167.614105 
	C510.083069,166.744064 510.552917,165.874023 511.348877,164.937668 
	C512.115173,164.903183 512.555359,164.935043 512.992981,165.214783 
	C512.990479,165.462677 512.985718,165.958481 512.985718,165.958481 
	C514.429688,166.632553 515.857300,167.847565 517.320312,167.891769 
	C525.961792,168.152786 534.611450,168.141739 543.578796,168.466736 
	C534.286621,168.908218 524.663147,168.893082 515.065918,169.388306 
	C509.974915,169.651001 506.351685,168.107971 503.045044,164.155045 
	C498.830872,159.117172 493.921753,154.660599 488.625946,149.252609 
	C491.199738,148.955109 492.495819,148.676422 493.792328,148.674667 
	C514.772766,148.646240 535.753235,148.641052 556.733643,148.680832 
	C558.019104,148.683273 559.303833,149.104492 560.642334,149.699768 
z"/>
<path fill="#41ADCC" opacity="1.000000" stroke="none" 
	d="
M207.402252,191.272522 
	C214.751129,186.409256 218.011017,177.880280 215.535904,170.088821 
	C212.728165,161.250290 204.586563,156.698761 192.557251,157.326614 
	C191.080978,154.331635 192.252945,153.297852 195.359299,153.024048 
	C207.590286,151.945923 217.890396,159.896774 220.543274,172.761520 
	C220.754852,173.492279 220.761612,173.929871 220.757202,175.062912 
	C219.817047,183.806549 216.952667,190.709076 209.017426,195.419250 
	C208.358231,193.806473 207.832352,192.519867 207.306458,191.233261 
	C207.306473,191.233261 207.370575,191.258835 207.402252,191.272522 
z"/>
<path fill="#54B3CE" opacity="1.000000" stroke="none" 
	d="
M441.795959,284.362671 
	C439.904266,285.111237 438.413391,285.823120 436.986450,286.645874 
	C436.239044,287.076813 435.200775,288.283844 434.988953,288.137115 
	C434.159363,287.562347 433.074615,286.608765 433.041290,285.758484 
	C432.879913,281.635132 432.973816,277.497650 433.121124,273.370361 
	C433.145264,272.694275 433.734985,271.816071 434.324463,271.420654 
	C436.995026,269.629272 448.421295,270.543396 450.515961,273.008667 
	C451.663666,274.359497 452.359253,276.494507 452.398224,278.294556 
	C452.458282,281.067383 451.967621,283.904663 451.275208,286.602875 
	C451.110840,287.243256 448.989868,288.039368 448.167084,287.724213 
	C446.066071,286.919495 444.189606,285.528503 441.795959,284.362671 
M445.648438,280.650848 
	C446.585022,279.253265 447.521637,277.855682 448.458221,276.458038 
	C445.134827,275.939453 441.809296,275.123779 438.489899,275.147980 
	C437.809845,275.152924 437.152740,278.303467 436.166748,280.814850 
	C439.913055,280.814850 442.366394,280.814850 445.648438,280.650848 
z"/>
<path fill="#4BADCA" opacity="1.000000" stroke="none" 
	d="
M417.061676,289.293152 
	C406.450409,288.572174 404.386017,285.051849 407.246429,272.906555 
	C411.602814,272.468994 410.197723,275.816040 410.248047,277.833801 
	C410.411346,284.383911 412.229218,286.147156 418.685272,285.619965 
	C423.859985,285.197418 425.028564,282.543030 423.958923,273.337494 
	C428.023529,271.593292 427.848328,275.046875 428.157288,277.106812 
	C429.401428,285.401489 426.223511,288.922424 417.061676,289.293152 
z"/>
<path fill="#53AFC9" opacity="1.000000" stroke="none" 
	d="
M334.302124,271.138458 
	C334.302124,271.138458 334.657440,271.143127 335.160339,271.146973 
	C336.118347,271.102631 336.573486,271.054443 337.028625,271.006256 
	C339.384369,271.048279 341.740143,271.090302 344.936096,271.147827 
	C347.386017,271.164093 348.995789,271.164856 350.720520,271.562897 
	C349.959473,272.902527 349.199066,274.471558 348.183746,274.658905 
	C345.962250,275.068787 343.577209,274.537506 341.325439,274.857849 
	C339.854095,275.067139 338.499329,276.096039 337.092316,276.757812 
	C338.427399,277.474335 339.710205,278.656769 341.108093,278.813629 
	C344.354431,279.178009 347.656311,279.047333 350.935730,279.117310 
	C350.947662,279.800507 350.959595,280.483673 350.479553,281.577698 
	C345.788818,281.988525 341.590057,281.988525 337.093567,281.988525 
	C337.093567,284.110718 337.093567,285.551392 337.093567,286.992065 
	C337.093567,286.992065 336.968872,287.406403 336.574738,287.666290 
	C335.446533,287.977081 334.712433,288.027954 333.978363,288.078857 
	C333.903931,287.908325 333.829468,287.737793 333.755524,286.853943 
	C333.666595,281.734955 333.577179,277.329315 333.487762,272.923676 
	C333.487762,272.923676 333.610931,272.450562 333.840942,272.035156 
	C334.148041,271.459351 334.225067,271.298889 334.302124,271.138458 
z"/>
<path fill="#EFFCFC" opacity="1.000000" stroke="none" 
	d="
M206.920914,191.203476 
	C207.832352,192.519867 208.358231,193.806473 209.017426,195.419250 
	C216.952667,190.709076 219.817047,183.806549 220.850220,175.379013 
	C225.713928,177.148743 225.827469,178.036331 223.181290,182.230316 
	C222.465897,183.364166 223.213608,185.421173 223.309753,187.483231 
	C222.187912,187.802322 220.727478,188.217728 218.591980,188.825134 
	C223.039352,193.874680 216.910339,195.685791 216.007050,199.564011 
	C212.937408,199.313934 209.874130,198.682404 206.406570,197.982208 
	C206.179993,195.666931 206.357681,193.420303 206.920914,191.203476 
z"/>
<path fill="#4BADCA" opacity="1.000000" stroke="none" 
	d="
M472.984436,278.919098 
	C473.261688,279.098846 473.497406,279.322388 473.729858,280.030334 
	C473.768158,280.470947 473.823120,280.929871 473.823120,280.929871 
	C473.675934,281.200714 473.507324,281.457458 472.709351,281.852722 
	C470.108734,282.000916 468.067963,281.732422 466.140320,282.084198 
	C464.836182,282.322144 463.691284,283.432953 462.475189,284.153381 
	C463.610016,284.807037 464.689056,285.860687 465.891693,286.028503 
	C468.174622,286.347076 470.528320,286.158356 472.852631,286.180359 
	C473.016510,286.435547 473.208588,286.667328 473.581848,287.282501 
	C473.747223,288.052032 473.759613,288.414764 473.772034,288.777496 
	C473.772003,288.777496 473.947693,288.846619 473.423218,288.900513 
	C468.595123,288.981995 464.291534,289.009583 459.987915,289.037201 
	C459.987915,289.037201 459.987762,288.993439 459.911499,288.542480 
	C459.808472,283.939087 459.653168,279.781097 459.832642,275.637604 
	C459.886993,274.382629 460.774719,272.162415 461.439423,272.101013 
	C465.176056,271.755676 468.961121,271.934509 472.729675,271.934509 
	C472.747437,272.555817 472.765198,273.177124 472.782928,273.798431 
	C470.304871,273.968353 467.784302,273.926849 465.369751,274.412506 
	C464.407593,274.606018 463.679810,275.964844 462.845337,276.793182 
	C463.734467,277.515991 464.564148,278.749969 465.524353,278.861694 
	C467.980042,279.147339 470.493866,278.933258 472.984436,278.919098 
z"/>
<path fill="#4BADCA" opacity="1.000000" stroke="none" 
	d="
M374.298096,273.155731 
	C374.298096,273.155731 374.675507,273.040649 375.091003,272.944885 
	C375.506500,272.849152 375.981232,272.700745 375.981232,272.700745 
	C376.391113,272.851990 376.800995,273.003235 377.490295,273.719086 
	C378.230072,279.834076 379.097931,285.519836 372.924438,288.865967 
	C372.489288,288.909454 372.054108,288.952942 370.870789,289.028717 
	C368.087402,289.109161 366.052185,289.157318 364.016968,289.205444 
	C363.584412,289.118317 363.151855,289.031219 362.146271,288.681061 
	C360.029663,286.205231 357.926941,284.179962 357.103638,281.725586 
	C356.319336,279.387390 356.870026,276.601379 356.833832,274.012238 
	C356.833832,274.012238 356.979004,273.584076 357.356873,273.324036 
	C358.166626,272.965790 358.598541,272.867554 359.030426,272.769287 
	C359.197937,272.809418 359.365479,272.849487 359.821533,273.390747 
	C360.094879,276.389862 359.644287,278.993225 360.215332,281.348999 
	C360.605316,282.957825 362.154297,284.994720 363.644440,285.508789 
	C371.316193,288.155670 375.675232,284.558472 374.865631,276.598511 
	C374.748138,275.443604 374.490753,274.302979 374.298096,273.155731 
z"/>
<path fill="#54B3CE" opacity="1.000000" stroke="none" 
	d="
M384.060883,271.350220 
	C385.752380,271.269226 387.443909,271.188232 389.998047,271.136414 
	C393.246429,271.115051 395.632202,271.064545 398.017975,271.014038 
	C399.138885,271.667328 400.259766,272.320618 401.380676,272.973907 
	C400.375397,273.757599 399.379456,275.189819 398.363068,275.204437 
	C395.200256,275.250061 394.412476,276.794159 394.469910,279.586273 
	C394.520691,282.054840 394.237671,284.530212 393.587616,287.410034 
	C392.356018,286.654663 391.206268,285.557861 391.016602,284.314575 
	C390.678833,282.100433 391.219788,279.738708 390.788300,277.558441 
	C390.591278,276.562866 388.955627,275.851990 387.972443,275.012024 
	C386.996246,274.946350 386.020081,274.880707 384.566956,274.565704 
	C384.080322,273.327667 384.070587,272.338928 384.060883,271.350220 
z"/>
<path fill="#A1A0A0" opacity="1.000000" stroke="none" 
	d="
M512.156006,275.751068 
	C516.715637,274.158417 520.937744,273.264160 524.892578,277.034607 
	C521.671753,277.034607 518.450928,277.034607 515.230103,277.034607 
	C515.094727,277.562195 514.959290,278.089752 514.823853,278.617340 
	C516.572815,279.103455 518.421021,279.376160 520.045166,280.130951 
	C521.977295,281.028809 523.717102,282.340729 525.540222,283.473236 
	C523.635925,284.660187 521.863403,286.291565 519.789490,286.906067 
	C517.810852,287.492371 515.485229,287.241089 513.375977,286.927948 
	C512.115417,286.740845 510.977631,285.726929 510.209534,284.291504 
	C514.020386,284.291504 517.831238,284.291504 521.642090,284.291504 
	C521.673096,283.892456 521.704102,283.493439 521.735107,283.094391 
	C519.218628,282.609375 516.633606,282.342896 514.203735,281.581421 
	C511.452881,280.719391 508.944641,279.370850 512.156006,275.751068 
z"/>
<path fill="#A1A0A0" opacity="1.000000" stroke="none" 
	d="
M589.130432,274.949219 
	C591.748108,274.978729 593.979004,274.667816 596.048035,275.111481 
	C599.372375,275.824341 601.437866,277.555328 599.734863,281.517761 
	C599.106384,282.979919 599.223145,284.762360 598.949402,286.769806 
	C594.597961,284.433014 590.199524,280.997345 585.788635,286.379883 
	C582.578247,280.610260 583.893250,275.394501 589.130432,274.949219 
M589.662231,281.213776 
	C592.395569,280.925385 595.128906,280.637024 597.862183,280.348633 
	C597.863586,279.539520 597.864929,278.730408 597.866333,277.921295 
	C595.062683,277.625214 592.263672,277.226288 589.452454,277.100769 
	C588.687378,277.066589 587.885498,277.856262 587.100464,278.267822 
	C587.658875,279.229858 588.217346,280.191925 589.662231,281.213776 
z"/>
<path fill="#C7F4FA" opacity="1.000000" stroke="none" 
	d="
M472.717224,278.656586 
	C470.493866,278.933258 467.980042,279.147339 465.524353,278.861694 
	C464.564148,278.749969 463.734467,277.515991 462.845337,276.793182 
	C463.679810,275.964844 464.407593,274.606018 465.369751,274.412506 
	C467.784302,273.926849 470.304871,273.968353 472.782928,273.798431 
	C472.765198,273.177124 472.747437,272.555817 472.729675,271.934509 
	C468.961121,271.934509 465.176056,271.755676 461.439423,272.101013 
	C460.774719,272.162415 459.886993,274.382629 459.832642,275.637604 
	C459.653168,279.781097 459.808472,283.939087 459.896667,288.558594 
	C459.316925,287.886505 458.196228,286.777191 458.122955,285.602478 
	C457.886017,281.805695 457.969696,277.983063 458.074707,274.174377 
	C458.104736,273.084991 458.335571,271.774048 458.981689,270.974915 
	C460.435242,269.177032 472.724487,269.139221 474.062012,270.926453 
	C475.688538,273.099670 475.315430,275.062317 472.485474,275.823212 
	C470.880432,276.254730 469.144623,276.199921 467.485168,277.435211 
	C469.140106,277.754822 470.795044,278.074463 472.717224,278.656586 
z"/>
<path fill="#A1A0A0" opacity="1.000000" stroke="none" 
	d="
M607.409485,287.556580 
	C606.071350,283.718719 605.172302,279.877258 604.125244,275.403534 
	C609.179749,275.403534 612.922607,275.403534 616.665405,275.403534 
	C616.714417,275.805725 616.763428,276.207916 616.812439,276.610107 
	C613.824707,276.903778 610.836975,277.197449 607.849182,277.491119 
	C607.814331,278.061310 607.779480,278.631500 607.744568,279.201721 
	C610.788208,279.687286 613.831787,280.172882 616.875366,280.658478 
	C616.885376,281.104858 616.895447,281.551270 616.905518,281.997650 
	C615.539734,282.073151 614.174805,282.182617 612.808105,282.215302 
	C611.217102,282.253357 609.624634,282.224152 608.032776,282.224152 
	C607.914795,282.860931 607.796753,283.497711 607.678772,284.134521 
	C610.724243,284.654510 613.769653,285.174500 616.815125,285.694489 
	C616.821594,286.265106 616.828064,286.835724 616.834595,287.406311 
	C613.839233,287.455231 610.843872,287.504120 607.409485,287.556580 
z"/>
<path fill="#9E9E9D" opacity="1.000000" stroke="none" 
	d="
M580.279541,274.787109 
	C578.803406,275.634827 576.989868,276.258942 575.191528,276.924255 
	C573.837097,277.425323 572.502197,277.979095 571.158569,278.509399 
	C572.545959,278.991791 573.901855,279.698975 575.328796,279.898926 
	C577.061462,280.141724 578.854004,279.956573 580.620667,279.956573 
	C580.678589,280.438660 580.736511,280.920776 580.794434,281.402863 
	C577.528015,281.840485 574.261658,282.278076 570.995300,282.715668 
	C571.020813,283.311218 571.046326,283.906738 571.071838,284.502258 
	C574.299377,284.812195 577.526855,285.122101 580.754333,285.432037 
	C580.739868,285.877136 580.725403,286.322235 580.710876,286.767334 
	C576.968872,286.767334 573.226807,286.767334 569.208923,286.767334 
	C569.208923,282.745056 569.208923,278.982056 569.208923,274.581238 
	C572.819458,274.581238 576.384094,274.581238 580.279541,274.787109 
z"/>
<path fill="#A1A0A0" opacity="1.000000" stroke="none" 
	d="
M503.531860,274.958740 
	C504.548462,275.135681 505.127625,275.299164 505.706818,275.462646 
	C505.750000,275.749298 505.793182,276.035919 505.836365,276.322571 
	C504.434204,276.693207 503.032013,277.063873 501.262238,277.531677 
	C501.262238,279.677979 501.262238,281.931122 501.262238,284.428741 
	C502.736206,284.867920 504.326691,285.341797 505.917145,285.815674 
	C505.870941,286.167786 505.824707,286.519897 505.778503,286.872009 
	C501.684662,286.872009 497.590820,286.872009 493.496979,286.872009 
	C493.450653,286.467163 493.404327,286.062317 493.358002,285.657471 
	C494.799957,285.297424 496.241943,284.937378 498.065735,284.481995 
	C498.065735,282.340790 498.065735,280.100464 498.065735,277.582611 
	C496.342621,277.246735 494.628510,276.912659 492.914398,276.578552 
	C492.909943,276.034119 492.905487,275.489685 492.901062,274.945251 
	C496.298859,274.945251 499.696655,274.945251 503.531860,274.958740 
z"/>
<path fill="#9E9E9D" opacity="1.000000" stroke="none" 
	d="
M560.921570,278.266571 
	C561.140381,277.140656 561.332275,276.418060 561.524109,275.695496 
	C561.829285,275.714417 562.134399,275.733337 562.439514,275.752258 
	C562.439514,279.262848 562.439514,282.773438 562.439514,286.284027 
	C562.215942,286.363098 561.992310,286.442200 561.768738,286.521271 
	C561.339600,285.173859 560.910461,283.826447 560.306519,281.930298 
	C555.961304,283.327087 549.852112,278.570679 546.666260,286.262085 
	C546.666260,282.807007 546.666260,279.351959 546.666260,276.622955 
	C548.722107,277.688019 550.837402,279.475067 553.156189,279.797058 
	C555.635681,280.141296 558.307007,279.104095 560.921570,278.266571 
z"/>
<path fill="#DCFCFD" opacity="1.000000" stroke="none" 
	d="
M373.917633,273.154663 
	C374.490753,274.302979 374.748138,275.443604 374.865631,276.598511 
	C375.675232,284.558472 371.316193,288.155670 363.644440,285.508789 
	C362.154297,284.994720 360.605316,282.957825 360.215332,281.348999 
	C359.644287,278.993225 360.094879,276.389862 360.075439,273.438538 
	C360.688477,274.279907 361.647461,275.516083 361.905273,276.884369 
	C362.230530,278.610779 361.983765,280.444916 361.983765,282.853363 
	C365.765564,283.129211 369.080231,283.371002 372.394897,283.612762 
	C369.025543,278.816345 371.482300,276.008148 373.917633,273.154663 
z"/>
<path fill="#ECFCFD" opacity="1.000000" stroke="none" 
	d="
M350.958954,278.774048 
	C347.656311,279.047333 344.354431,279.178009 341.108093,278.813629 
	C339.710205,278.656769 338.427399,277.474335 337.092316,276.757812 
	C338.499329,276.096039 339.854095,275.067139 341.325439,274.857849 
	C343.577209,274.537506 345.962250,275.068787 348.183746,274.658905 
	C349.199066,274.471558 349.959473,272.902527 351.111694,271.507874 
	C351.910278,271.027100 352.432709,270.998627 352.955109,270.970123 
	C352.297485,273.457001 351.639832,275.943909 350.958954,278.774048 
z"/>
<path fill="#DCFCFD" opacity="1.000000" stroke="none" 
	d="
M559.661072,222.575714 
	C544.396667,222.883957 528.814941,222.801773 513.240601,223.099945 
	C510.725983,223.148102 508.243774,224.888565 505.410553,226.001160 
	C504.790039,223.524216 505.772736,221.985153 508.612640,222.002991 
	C525.523865,222.109222 542.435059,222.209381 559.661072,222.575714 
z"/>
<path fill="#DCFCFD" opacity="1.000000" stroke="none" 
	d="
M384.020752,271.001404 
	C384.070587,272.338928 384.080322,273.327667 384.199768,274.564697 
	C381.353760,274.667664 379.638367,275.599121 379.873016,279.038544 
	C379.992340,280.786957 379.147522,282.578796 379.014496,284.371490 
	C378.747101,287.974487 377.042053,289.773071 373.131012,289.142059 
	C379.097931,285.519836 378.230072,279.834076 377.783478,273.865845 
	C379.462585,271.640717 380.569092,268.597351 384.020752,271.001404 
z"/>
<path fill="#C7F4FA" opacity="1.000000" stroke="none" 
	d="
M472.889160,285.766235 
	C470.528320,286.158356 468.174622,286.347076 465.891693,286.028503 
	C464.689056,285.860687 463.610016,284.807037 462.475189,284.153381 
	C463.691284,283.432953 464.836182,282.322144 466.140320,282.084198 
	C468.067963,281.732422 470.108734,282.000916 472.551910,282.021240 
	C472.976898,283.142151 472.951324,284.247131 472.889160,285.766235 
z"/>
<path fill="#DCFCFD" opacity="1.000000" stroke="none" 
	d="
M356.584381,274.274414 
	C356.870026,276.601379 356.319336,279.387390 357.103638,281.725586 
	C357.926941,284.179962 360.029663,286.205231 361.815002,288.672729 
	C357.017578,290.355011 353.544373,287.614197 354.317444,282.614105 
	C354.739685,279.882904 355.646576,277.226654 356.584381,274.274414 
z"/>
<path fill="#DCFCFD" opacity="1.000000" stroke="none" 
	d="
M337.403320,286.820984 
	C337.093567,285.551392 337.093567,284.110718 337.093567,281.988525 
	C341.590057,281.988525 345.788818,281.988525 350.439392,281.917969 
	C349.285339,282.611755 347.730927,283.523468 346.061829,284.107147 
	C343.318024,285.066620 340.499878,285.813416 337.403320,286.820984 
z"/>
<path fill="#FCFCFC" opacity="1.000000" stroke="none" 
	d="
M210.002289,151.001831 
	C206.785110,149.479431 203.565613,147.955200 200.015427,146.274399 
	C206.097656,143.813614 209.494308,145.287781 210.001907,150.588623 
	C210.003311,151.004608 210.000000,151.000000 210.002289,151.001831 
z"/>
<path fill="#C7F4FA" opacity="1.000000" stroke="none" 
	d="
M460.230652,289.297791 
	C464.291534,289.009583 468.595123,288.981995 473.337463,288.873169 
	C471.223358,292.879608 468.476074,293.622620 464.911865,291.411255 
	C463.566864,290.576813 461.960571,290.163574 460.230652,289.297791 
z"/>
<path fill="#DCFCFD" opacity="1.000000" stroke="none" 
	d="
M333.156250,273.080750 
	C333.577179,277.329315 333.666595,281.734955 333.643616,286.598267 
	C329.534637,282.642212 332.384216,277.878418 333.156250,273.080750 
z"/>
<path fill="#DCFCFD" opacity="1.000000" stroke="none" 
	d="
M387.989990,275.401428 
	C388.955627,275.851990 390.591278,276.562866 390.788300,277.558441 
	C391.219788,279.738708 390.678833,282.100433 391.016602,284.314575 
	C391.206268,285.557861 392.356018,286.654663 393.476135,287.787781 
	C392.782654,288.245636 391.686249,288.733154 390.589844,289.220673 
	C390.093140,287.961639 389.355835,286.741058 389.147430,285.436005 
	C388.637360,282.241699 388.371613,279.008423 387.989990,275.401428 
z"/>
<path fill="#4CB1CF" opacity="1.000000" stroke="none" 
	d="
M551.381958,168.905411 
	C554.049377,168.126511 557.011414,167.551331 560.334045,166.964020 
	C558.513916,171.120941 554.756226,168.697678 551.381958,168.905411 
z"/>
<path fill="#DCFCFD" opacity="1.000000" stroke="none" 
	d="
M352.937866,270.674438 
	C352.432709,270.998627 351.910278,271.027100 350.996704,271.110596 
	C348.995789,271.164856 347.386017,271.164093 345.373535,271.084167 
	C347.295532,266.667633 350.123260,268.716095 352.937866,270.674438 
z"/>
<path fill="#DCFCFD" opacity="1.000000" stroke="none" 
	d="
M397.933258,270.634033 
	C395.632202,271.064545 393.246429,271.115051 390.419342,271.082397 
	C392.293030,267.492828 395.045288,268.604004 397.933258,270.634033 
z"/>
<path fill="#DCFCFD" opacity="1.000000" stroke="none" 
	d="
M495.820374,235.064301 
	C494.711548,236.710083 493.209686,238.317398 491.409149,240.069611 
	C490.805939,237.034363 492.179749,235.250595 495.820374,235.064301 
z"/>
<path fill="#DCFCFD" opacity="1.000000" stroke="none" 
	d="
M364.299683,289.441589 
	C366.052185,289.157318 368.087402,289.109161 370.555511,289.120911 
	C368.853058,289.346436 366.717743,289.512085 364.299683,289.441589 
z"/>
<path fill="#DCFCFD" opacity="1.000000" stroke="none" 
	d="
M334.036743,288.410645 
	C334.712433,288.027954 335.446533,287.977081 336.545258,287.880615 
	C336.623444,290.159546 335.720978,290.573120 334.036743,288.410645 
z"/>
<path fill="#C7F4FA" opacity="1.000000" stroke="none" 
	d="
M474.087555,288.814484 
	C473.759613,288.414764 473.747223,288.052032 473.762817,287.418152 
	C474.347412,287.328644 474.903992,287.510284 475.460510,287.691895 
	C475.108032,288.078430 474.755554,288.464966 474.087555,288.814484 
z"/>
<path fill="#DCFCFD" opacity="1.000000" stroke="none" 
	d="
M358.967010,272.485901 
	C358.598541,272.867554 358.166626,272.965790 357.404114,273.102966 
	C357.316956,272.584564 357.560425,272.027191 357.803864,271.469818 
	C358.170441,271.714081 358.537018,271.958313 358.967010,272.485901 
z"/>
<path fill="#DCFCFD" opacity="1.000000" stroke="none" 
	d="
M336.985962,270.707581 
	C336.573486,271.054443 336.118347,271.102631 335.324890,271.079987 
	C335.638824,270.809082 336.291077,270.608978 336.985962,270.707581 
z"/>
<path fill="#DCFCFD" opacity="1.000000" stroke="none" 
	d="
M503.948425,227.145660 
	C504.016541,227.379745 503.809570,227.673553 503.337158,228.039169 
	C503.272247,227.809113 503.472809,227.507248 503.948425,227.145660 
z"/>
<path fill="#C7F4FA" opacity="1.000000" stroke="none" 
	d="
M474.026947,280.889160 
	C473.823120,280.929871 473.768158,280.470947 473.836487,280.250458 
	C474.098389,280.195679 474.298553,280.355133 474.472626,280.539276 
	C474.486053,280.553436 474.315704,280.741333 474.026947,280.889160 
z"/>
<path fill="#DCFCFD" opacity="1.000000" stroke="none" 
	d="
M502.844360,228.165237 
	C502.940308,228.385239 502.769501,228.699463 502.346863,229.128479 
	C502.255890,228.915344 502.416748,228.587402 502.844360,228.165237 
z"/>
<path fill="#DCFCFD" opacity="1.000000" stroke="none" 
	d="
M499.963135,231.172333 
	C500.042511,231.405563 499.830963,231.713760 499.358521,232.137848 
	C499.289124,231.918274 499.480652,231.582779 499.963135,231.172333 
z"/>
<path fill="#DCFCFD" opacity="1.000000" stroke="none" 
	d="
M497.966919,233.164337 
	C498.033264,233.393723 497.814301,233.689087 497.331177,234.082520 
	C497.271851,233.863831 497.476715,233.547073 497.966919,233.164337 
z"/>
<path fill="#DCFCFD" opacity="1.000000" stroke="none" 
	d="
M489.942200,241.204193 
	C490.071960,241.448624 489.897064,241.801743 489.472595,242.321350 
	C489.361176,242.096207 489.499359,241.704544 489.942200,241.204193 
z"/>
<path fill="#DCFCFD" opacity="1.000000" stroke="none" 
	d="
M375.872864,272.574951 
	C375.981232,272.700745 375.506500,272.849152 375.258179,272.840149 
	C375.153412,272.450439 375.404968,272.323090 375.872864,272.574951 
z"/>
<path fill="#DCFCFD" opacity="1.000000" stroke="none" 
	d="
M334.101715,271.125793 
	C334.225067,271.298889 334.148041,271.459351 333.866516,271.792053 
	C333.622375,271.731110 333.560669,271.497955 333.560516,271.264709 
	C333.560486,271.214264 333.781891,271.163666 334.101715,271.125793 
z"/>
<path fill="#FCFCFC" opacity="1.000000" stroke="none" 
	d="
M211.014160,225.644836 
	C208.268875,231.006027 203.100372,229.919083 198.937668,230.682388 
	C184.575439,233.315948 170.131897,235.505432 155.721420,237.876740 
	C146.146698,239.452301 138.874680,233.989166 138.899445,225.217529 
	C138.920273,217.838943 144.110565,212.346039 151.548798,212.915115 
	C162.139526,213.725403 172.676041,215.248322 183.234039,216.481186 
	C190.162857,217.290253 197.088882,218.123306 204.015839,218.948227 
	C207.845535,219.404312 211.457428,220.110580 211.014160,225.644836 
M157.893036,226.277985 
	C157.408096,220.303162 153.480530,216.993469 148.594910,218.503738 
	C144.981323,219.620789 143.038651,222.248871 143.234161,225.916107 
	C143.428635,229.563812 145.589035,232.259583 149.290222,232.777969 
	C153.585556,233.379578 156.612259,231.393600 157.893036,226.277985 
z"/>
<path fill="#EFFCFC" opacity="1.000000" stroke="none" 
	d="
M205.382019,174.990143 
	C206.151154,176.186157 207.442947,177.332535 207.562378,178.590240 
	C207.726227,180.315796 207.001114,182.125793 206.588242,184.253632 
	C205.401047,184.253632 204.047485,184.253632 202.428284,184.253632 
	C202.428284,185.838654 202.428284,187.205750 202.428284,188.993927 
	C198.457611,187.616043 197.024658,188.782944 196.830505,192.939545 
	C196.574814,198.413834 191.924881,200.543411 187.741959,197.318558 
	C184.897522,195.125595 182.598892,192.224686 180.396973,189.406815 
	C183.884308,191.261627 186.944016,193.507462 190.240204,195.324310 
	C191.034851,195.762314 192.612518,194.779785 193.830109,194.450500 
	C193.197067,193.481766 192.776031,191.977142 191.897293,191.629501 
	C185.192688,188.977203 181.544342,184.214157 180.729736,177.034622 
	C180.618759,176.056519 178.934906,175.256866 177.979309,174.374573 
	C177.495163,175.449738 176.406784,176.676453 176.631836,177.573761 
	C177.590256,181.395020 178.937363,185.118774 180.142578,188.878128 
	C174.600464,188.085037 173.183365,183.525772 171.102188,179.085892 
	C172.574707,175.708649 174.344208,172.547165 176.070648,169.462601 
	C185.755997,171.758636 185.755997,171.758636 188.072327,164.363449 
	C191.204575,164.044891 194.277298,163.915558 197.296982,164.256271 
	C198.183212,164.356232 198.918945,165.790131 199.318481,166.895279 
	C197.753479,167.265472 195.852036,166.954727 195.555862,167.506149 
	C193.820496,170.737183 192.460358,174.169739 190.796341,177.935593 
	C193.703918,178.149002 195.630569,178.290405 197.962067,178.461533 
	C197.399734,180.311447 196.937683,181.831482 195.935074,185.129822 
	C198.511063,184.079346 200.419708,183.903961 201.139389,182.887115 
	C202.852615,180.466400 204.003784,177.647919 205.382019,174.990143 
z"/>
<path fill="#FCFCFC" opacity="1.000000" stroke="none" 
	d="
M177.696121,157.902069 
	C183.966690,158.433960 185.240402,160.948166 182.766541,166.048889 
	C176.620758,165.129044 170.639328,164.233795 164.156052,163.263428 
	C163.316528,159.926575 165.223511,158.217819 168.745270,157.950134 
	C171.562332,157.736023 174.408493,157.904785 177.696121,157.902069 
z"/>
<path fill="#EEFDFD" opacity="1.000000" stroke="none" 
	d="
M446.494568,171.538208 
	C436.557983,160.392746 424.031311,156.708572 409.924561,156.878754 
	C399.789124,157.001038 397.940674,155.800919 392.374451,145.935669 
	C413.013641,146.025955 433.634338,142.261353 450.896149,158.717178 
	C469.186920,176.153900 471.637665,204.509109 455.762177,224.173462 
	C445.592255,236.770660 432.201447,242.180161 416.847290,243.866226 
	C408.628601,244.768723 400.326965,244.915466 391.703552,245.424469 
	C394.718811,237.304749 399.620331,233.760452 406.939697,234.156647 
	C419.487244,234.835892 431.282806,232.807053 440.999969,224.214203 
	C457.372894,209.735764 459.447571,189.794037 446.494568,171.538208 
z"/>
<path fill="#ECFCFD" opacity="1.000000" stroke="none" 
	d="
M626.029907,200.231430 
	C629.400940,199.089584 632.608582,198.443008 635.272156,196.873291 
	C643.557739,191.990479 646.343323,185.361420 644.253296,176.705490 
	C641.489929,165.261124 635.734497,159.674286 625.000305,159.030045 
	C615.044922,158.432541 605.038513,158.096542 595.078735,158.410706 
	C590.206055,158.564407 587.199036,157.524200 585.886047,152.706055 
	C585.510925,151.329681 584.815247,150.040665 583.940735,147.922379 
	C591.044495,147.922379 597.483093,147.921509 603.921753,147.922623 
	C610.251526,147.923721 616.637878,148.470093 622.899536,147.818008 
	C636.701111,146.380707 650.985718,159.839279 653.521179,172.311508 
	C656.213562,185.555588 649.223083,199.990036 636.441406,206.351410 
	C634.697205,207.219467 632.924805,208.030823 630.685913,209.096710 
	C637.188354,220.645294 643.508850,231.870758 649.879639,243.185638 
	C641.323853,245.334808 640.117310,244.865433 636.038879,237.892227 
	C629.079102,225.992645 622.140320,214.080856 614.889465,201.654633 
	C618.900696,201.149780 622.259155,200.727081 626.029907,200.231430 
z"/>
<path fill="#ECFCFD" opacity="1.000000" stroke="none" 
	d="
M287.812561,147.917267 
	C301.685547,148.292526 313.722137,158.985001 316.669922,173.129135 
	C319.330536,185.895538 311.689362,200.515656 299.188690,206.544098 
	C297.570068,207.324692 295.912903,208.025314 293.683655,209.028458 
	C296.973083,214.911850 300.092590,220.519150 303.239075,226.111282 
	C306.405304,231.738525 309.598328,237.350723 312.835022,243.067368 
	C304.606018,245.387238 302.997101,244.817398 299.222290,238.338440 
	C292.203247,226.291183 285.218079,214.224182 278.138245,202.026611 
	C283.602173,200.957047 288.866791,200.428864 293.790985,198.843369 
	C300.953186,196.537292 306.855896,192.108627 307.641754,184.048782 
	C308.471130,175.542587 306.366943,167.077759 298.580505,162.720627 
	C293.346832,159.791992 286.629456,159.005020 280.462952,158.387314 
	C273.374237,157.677231 266.109070,157.678955 259.018097,158.371063 
	C253.257858,158.933273 249.911835,157.257660 248.390015,151.764191 
	C248.093765,150.694794 247.634415,149.670593 246.990860,147.919724 
	C260.813690,147.919724 274.076355,147.919724 287.812561,147.917267 
z"/>
<path fill="#42B0CE" opacity="1.000000" stroke="none" 
	d="
M205.244781,174.777222 
	C204.003784,177.647919 202.852615,180.466400 201.139389,182.887115 
	C200.419708,183.903961 198.511063,184.079346 195.935074,185.129822 
	C196.937683,181.831482 197.399734,180.311447 197.962067,178.461533 
	C195.630569,178.290405 193.703918,178.149002 190.796341,177.935593 
	C192.460358,174.169739 193.820496,170.737183 195.555862,167.506149 
	C195.852036,166.954727 197.753479,167.265472 199.215179,167.262390 
	C199.517059,167.346863 199.590378,167.321548 199.598190,167.644852 
	C199.052292,169.768448 198.498566,171.568756 197.726196,174.079926 
	C200.511932,174.079926 202.735443,174.079926 204.958954,174.079926 
	C205.008499,174.241394 205.058029,174.402847 205.244781,174.777222 
z"/>
<path fill="#EFFCFC" opacity="1.000000" stroke="none" 
	d="
M204.938675,173.720123 
	C202.735443,174.079926 200.511932,174.079926 197.726196,174.079926 
	C198.498566,171.568756 199.052292,169.768448 199.632660,167.627106 
	C201.412338,169.310806 203.165359,171.335556 204.938675,173.720123 
z"/>
<path fill="#FEFFFF" opacity="1.000000" stroke="none" 
	d="
M191.042969,160.324615 
	C192.206741,160.487152 193.414703,160.974915 194.811951,161.730347 
	C193.696533,161.548615 192.391830,161.099228 191.042969,160.324615 
z"/>
<path fill="#E4F8FB" opacity="1.000000" stroke="none" 
	d="
M347.719269,169.008148 
	C347.719025,163.888702 347.719025,159.267487 347.719025,154.475708 
	C354.224243,156.630981 358.251465,161.974777 358.258301,168.019257 
	C358.277283,184.850601 358.273041,201.681976 358.276276,218.513336 
	C358.278503,230.194046 358.277252,230.194046 347.719513,238.285812 
	C347.719513,214.846191 347.719513,192.176285 347.719269,169.008148 
z"/>
<path fill="#F4FFFE" opacity="1.000000" stroke="none" 
	d="
M551.852661,200.997894 
	C532.780701,201.000046 514.193298,201.000046 495.932434,201.000046 
	C495.420441,200.229202 495.114716,199.976395 495.085541,199.694916 
	C494.165985,190.830383 494.170074,190.830078 502.883087,190.828888 
	C518.348083,190.826782 533.813110,190.818649 549.278137,190.824615 
	C558.049622,190.828003 558.281677,191.136719 556.576538,200.674652 
	C555.229309,200.776688 553.783325,200.886215 551.852661,200.997894 
z"/>
<path fill="#ECFCFD" opacity="1.000000" stroke="none" 
	d="
M526.000000,238.847473 
	C517.222351,238.847397 508.944702,238.847397 500.667023,238.847397 
	C505.423920,232.847809 508.718262,226.104187 518.312866,226.827484 
	C530.865234,227.773773 543.542725,227.059372 556.506714,227.059372 
	C556.506714,231.090897 556.506714,234.643539 556.506714,238.847534 
	C546.379761,238.847534 536.439880,238.847534 526.000000,238.847473 
z"/>
<path fill="#EEFDFD" opacity="1.000000" stroke="none" 
	d="
M512.995483,164.966888 
	C512.555359,164.935043 512.115173,164.903183 511.338196,164.928558 
	C511.001404,164.985779 510.975403,164.984741 510.882385,164.830719 
	C510.571777,164.479294 510.356720,164.481842 509.874390,164.484360 
	C509.403259,164.186584 509.201843,164.088852 509.000458,163.991135 
	C505.916077,160.865204 502.831696,157.739273 499.482025,154.631134 
	C499.640472,154.141113 500.064636,153.189056 500.487915,153.189438 
	C519.132202,153.206482 537.776489,153.307587 556.640015,154.154343 
	C556.886719,157.939667 556.914185,160.969254 556.941650,163.998871 
	C556.166199,164.302444 555.390747,164.606003 554.058472,164.915802 
	C553.501648,164.922043 553.016724,165.035080 553.016724,165.035080 
	C552.563538,164.989761 552.110352,164.944458 550.858337,164.885544 
	C537.704834,164.903595 525.350159,164.935242 512.995483,164.966888 
z"/>
<path fill="#41AECC" opacity="1.000000" stroke="none" 
	d="
M512.992981,165.214783 
	C525.350159,164.935242 537.704834,164.903595 550.521057,164.948975 
	C549.255981,165.348633 547.531494,165.936783 545.802429,165.950455 
	C535.177551,166.034409 524.551575,165.988510 513.455811,165.972137 
	C512.985718,165.958481 512.990479,165.462677 512.992981,165.214783 
z"/>
<path fill="#41AECC" opacity="1.000000" stroke="none" 
	d="
M557.247314,163.732361 
	C556.914185,160.969254 556.886719,157.939667 556.927795,154.461639 
	C557.181885,157.164078 557.367432,160.314972 557.247314,163.732361 
z"/>
<path fill="#41AECC" opacity="1.000000" stroke="none" 
	d="
M553.097961,165.198822 
	C553.016724,165.035080 553.501648,164.922043 553.741577,164.987885 
	C553.714050,165.156677 553.446655,165.259613 553.097961,165.198822 
z"/>
<path fill="#2AAAD0" opacity="1.000000" stroke="none" 
	d="
M508.739899,164.204849 
	C509.201843,164.088852 509.403259,164.186584 509.992249,164.576111 
	C510.565704,164.970901 510.764221,165.009857 510.975403,164.984741 
	C510.975403,164.984741 511.001404,164.985779 511.012085,164.994888 
	C510.552917,165.874023 510.083069,166.744064 509.613220,167.614105 
	C509.235260,166.548920 508.857300,165.483749 508.739899,164.204849 
z"/>
<path fill="#DCFCFD" opacity="1.000000" stroke="none" 
	d="
M445.234070,280.732849 
	C442.366394,280.814850 439.913055,280.814850 436.166748,280.814850 
	C437.152740,278.303467 437.809845,275.152924 438.489899,275.147980 
	C441.809296,275.123779 445.134827,275.939453 448.458252,276.458069 
	C447.521637,277.855682 446.585022,279.253265 445.234070,280.732849 
z"/>
<path fill="#FCFCFC" opacity="1.000000" stroke="none" 
	d="
M589.218994,281.183868 
	C588.217346,280.191925 587.658875,279.229858 587.100464,278.267822 
	C587.885498,277.856262 588.687378,277.066589 589.452454,277.100769 
	C592.263672,277.226288 595.062683,277.625214 597.866333,277.921295 
	C597.864929,278.730408 597.863586,279.539520 597.862183,280.348633 
	C595.128906,280.637024 592.395569,280.925385 589.218994,281.183868 
z"/>
<path fill="#A1A0A0" opacity="1.000000" stroke="none" 
	d="
M157.870544,226.671738 
	C156.612259,231.393600 153.585556,233.379578 149.290222,232.777969 
	C145.589035,232.259583 143.428635,229.563812 143.234161,225.916107 
	C143.038651,222.248871 144.981323,219.620789 148.594910,218.503738 
	C153.480530,216.993469 157.408096,220.303162 157.870544,226.671738 
M153.251816,223.979401 
	C151.448242,224.140045 149.644669,224.300690 147.841095,224.461319 
	C148.389496,225.808334 148.646255,228.046524 149.539780,228.338928 
	C152.479263,229.300842 153.754547,227.525604 153.251816,223.979401 
z"/>
<path fill="#4BADCA" opacity="1.000000" stroke="none" 
	d="
M180.107468,188.913513 
	C178.937363,185.118774 177.590256,181.395020 176.631836,177.573761 
	C176.406784,176.676453 177.495163,175.449738 177.979309,174.374573 
	C178.934906,175.256866 180.618759,176.056519 180.729736,177.034622 
	C181.544342,184.214157 185.192688,188.977203 191.897293,191.629501 
	C192.776031,191.977142 193.197067,193.481766 193.830109,194.450500 
	C192.612518,194.779785 191.034851,195.762314 190.240204,195.324310 
	C186.944016,193.507462 183.884308,191.261627 180.435852,189.035339 
	C180.133911,188.897430 180.072357,188.948898 180.107468,188.913513 
z"/>
<path fill="#4CB1CF" opacity="1.000000" stroke="none" 
	d="
M510.882385,164.830719 
	C510.764221,165.009857 510.565704,164.970901 510.261963,164.776123 
	C510.356720,164.481842 510.571777,164.479294 510.882385,164.830719 
z"/>
<path fill="#EFFCFC" opacity="1.000000" stroke="none" 
	d="
M153.446579,224.303421 
	C153.754547,227.525604 152.479263,229.300842 149.539780,228.338928 
	C148.646255,228.046524 148.389496,225.808334 147.841095,224.461319 
	C149.644669,224.300690 151.448242,224.140045 153.446579,224.303421 
z"/>
</svg>